<svg id="Layer_1" data-name="Layer 1" xmlns="http://www.w3.org/2000/svg" viewBox="0 0 92.36 84.76"><defs><style>.cls-1{fill:#0f2d52;}</style></defs><path class="cls-1" d="M376.66,289.75s-.12-2.18-.13-3v-.52c0-.56,0-1.14.08-1.73.82-9.7,8.23-17.73,17.34-20.44h0c.2-.07.26-.26,0-.24a25.06,25.06,0,0,0-22.12,25,25.4,25.4,0,0,0,1.18,7.44h0s0,0,0,.05c.31,1,1.31,3.91,1.74,4.83a17.91,17.91,0,0,1,1.05,8.09,37.13,37.13,0,0,1-2.35,9.14h0c-.12.3.12.4.29.23,6.58-7.2,4.83-16.84,4.5-19.48C377.75,295.34,376.92,293,376.66,289.75Z" transform="translate(-348.06 -240.49)"/><path class="cls-1" d="M440.21,305.89c-5.67-6.05-9.64-15.42-10-16.18a6.29,6.29,0,0,1-.46-1.5c0-.66-.31-1.34-.31-1.8a29.29,29.29,0,0,0-17.35-23.14l-.06,0c-.23-.1-.21-.21-.12-.32a27.72,27.72,0,0,1,23-8.07h0c.18,0,.26-.17.13-.32a51.24,51.24,0,0,0-5.91-4.78h0a51.67,51.67,0,0,0-79.65,30s0,0,0,0a52.94,52.94,0,0,0-1.42,12.92A51.51,51.51,0,0,0,354.84,318h0l.2.34.06.11a47.66,47.66,0,0,0,4.35,6.35c.61.76.88.43.69.16a77.3,77.3,0,0,1-4.54-7.18,48.3,48.3,0,0,1-4.66-19.89,49.21,49.21,0,0,1,69.57-45.11,30.75,30.75,0,0,0-11.9,11.15.38.38,0,0,0,.22.53s0,0,0,0c.43.14.85.29,1.27.45a29.29,29.29,0,0,1,18.08,20.83c0,.2-.1.21-.25.07-1.45-1.77-4-6.43-9.17-8.39s-11-1.82-14.85,2c3.43,5.53,10.32,4.72,15.33,5.47a1.19,1.19,0,0,1,1,.69h0a182.9,182.9,0,0,0,9.13,18.73c.24.4.26,1-.11,1.16-3.24,1.61-18.61,8.7-28.33,4-12.43-6.06-10.63-20.3-9-26h0c.08-.25-.11-.55-.38-.3-5.06,6.29-3.92,18-6.25,24.89-1.51,4.42-2.71,5.71-4.05,7.05-.1.09-.2.25-.25.3h0a0,0,0,0,1,0,0,0,0,0,0,0,0,0c-.06.14,0,.31.39.21l-.05.06s.38-.1,1.06-.23a35.65,35.65,0,0,1,12.38-1c8.55,1,12.36,4.93,15.85,8.83a6.67,6.67,0,0,0,2.35,1.9c.23.06.23.06.08-.33h0a10.92,10.92,0,0,1,.71-9.06c10-1.26,20-6.56,26.3-9A.54.54,0,0,0,440.21,305.89Z" transform="translate(-348.06 -240.49)"/></svg>